<?xml version="1.0" encoding="utf-8"?>
<!-- Generator: Adobe Illustrator 16.0.0, SVG Export Plug-In . SVG Version: 6.00 Build 0)  -->
<!DOCTYPE svg PUBLIC "-//W3C//DTD SVG 1.1//EN" "http://www.w3.org/Graphics/SVG/1.1/DTD/svg11.dtd">
<svg version="1.1" id="Layer_1" xmlns="http://www.w3.org/2000/svg" xmlns:xlink="http://www.w3.org/1999/xlink" x="0px" y="0px"
	 width="512.729px" height="512.832px" viewBox="0 0 512.729 512.832" enable-background="new 0 0 512.729 512.832"
	 xml:space="preserve">
<g>
	<path display="none" fill="none" d="M0,512.832C0,341.922,0,171.013,0,0c170.828,0,341.696,0,512.729,0
		c0,170.875,0,341.854,0,512.832C341.915,512.832,170.978,512.832,0,512.832z M339.429,388.951
		c8.113,9.98,15.67,19.491,23.552,28.724c1.095,1.281,3.89,1.881,5.734,1.626c11.827-1.633,23.846-2.667,35.358-5.623
		c29.982-7.701,55.398-23.078,74.443-47.928c1.854-2.42,3.089-6.042,3.037-9.078c-0.402-23.803-2.477-47.465-6.509-70.962
		c-8.615-50.204-23.847-98.261-46.409-143.94c-1.466-2.966-4.053-5.747-6.785-7.664c-29.083-20.401-60.954-33.479-96.626-36.787
		c-5.266-0.488-8.646,0.556-11.023,5.569c32.935,10.788,64.419,24.412,91.624,46.414c-101.929-49.843-203.577-47.489-305.711,1.248
		c2.104-1.718,3.663-3.224,5.44-4.401c8.318-5.504,16.487-11.278,25.096-16.293c21.443-12.492,44.542-21.19,68.473-29.303
		c-2.084-1.656-4.407-3.407-6.656-3.315c-5.957,0.245-11.926,1.034-17.812,2.052c-28.779,4.976-54.819,16.588-78.997,32.746
		c-4.837,3.233-8.665,6.932-10.941,12.477c-3.212,7.826-7.324,15.283-10.538,23.108c-23.204,56.488-37.645,114.924-40.836,176.17
		c-0.696,13.348,2.131,23.188,11.467,32.489c26.054,25.961,57.774,38.657,93.77,42.742c8.665,0.983,14.402-1.118,19.07-8.456
		c3.552-5.585,8.271-10.426,12.435-15.625c1.707-2.132,3.319-4.339,4.446-5.818c-12.213-6.144-24.424-11.434-35.756-18.196
		c-14.665-8.75-25.752-20.133-28.197-26.385c98.785,55.026,197.822,56.805,298.047-1.086
		C390.288,367.019,366.968,380.345,339.429,388.951z"/>
	<path fill-rule="evenodd" clip-rule="evenodd" d="M339.429,388.951c27.539-8.606,50.858-21.933,69.194-45.494
		c-100.226,57.891-199.262,56.112-298.047,1.086c2.445,6.252,13.533,17.635,28.197,26.385c11.333,6.763,23.543,12.053,35.756,18.196
		c-1.127,1.479-2.74,3.687-4.446,5.818c-4.164,5.199-8.882,10.04-12.435,15.625c-4.668,7.338-10.406,9.439-19.07,8.456
		c-35.995-4.085-67.716-16.781-93.77-42.742c-9.336-9.302-12.163-19.142-11.467-32.489c3.191-61.246,17.632-119.682,40.836-176.17
		c3.214-7.825,7.326-15.282,10.538-23.108c2.276-5.545,6.104-9.244,10.941-12.477c24.178-16.158,50.218-27.77,78.997-32.746
		c5.887-1.019,11.855-1.807,17.812-2.052c2.249-0.092,4.572,1.659,6.656,3.315c-23.931,8.112-47.029,16.811-68.473,29.303
		c-8.608,5.015-16.777,10.789-25.096,16.293c-1.777,1.177-3.335,2.683-5.44,4.401c102.135-48.737,203.783-51.091,305.711-1.248
		c-27.205-22.002-58.689-35.626-91.624-46.414c2.377-5.013,5.758-6.058,11.023-5.569c35.672,3.308,67.543,16.386,96.626,36.787
		c2.732,1.917,5.319,4.698,6.785,7.664c22.562,45.679,37.794,93.736,46.409,143.94c4.032,23.497,6.106,47.159,6.509,70.962
		c0.052,3.036-1.184,6.658-3.037,9.078c-19.045,24.85-44.461,40.227-74.443,47.928c-11.513,2.956-23.531,3.99-35.358,5.623
		c-1.845,0.255-4.64-0.345-5.734-1.626C355.099,408.442,347.542,398.932,339.429,388.951z M185.797,325.866
		c8.625-0.016,16.308-2.754,22.978-8.195c11.193-9.132,14.872-21.348,16.519-35.385c3.462-29.507-29.844-51.002-55.549-38.812
		c-18.153,8.608-27.795,30.702-22.03,51.483C152.894,313.633,168.016,325.898,185.797,325.866z M325.964,326.47
		c4.485-1.062,9.18-1.597,13.422-3.273c26.017-10.28,34.337-45.124,16.476-68.322c-14.17-18.404-40.657-20.105-56.88-3.47
		c-10.456,10.722-13.75,23.794-12.071,38.479C289.173,309.672,306.507,325.826,325.964,326.47z"/>
	<path display="none" fill-rule="evenodd" clip-rule="evenodd" fill="none" d="M185.797,325.866
		c-17.781,0.032-32.903-12.233-38.083-30.909c-5.765-20.781,3.877-42.875,22.03-51.483c25.705-12.19,59.011,9.305,55.549,38.812
		c-1.647,14.037-5.326,26.253-16.519,35.385C202.105,323.112,194.421,325.851,185.797,325.866z"/>
	<path display="none" fill-rule="evenodd" clip-rule="evenodd" fill="none" d="M325.964,326.47
		c-19.457-0.644-36.791-16.798-39.054-36.587c-1.679-14.685,1.615-27.757,12.071-38.479c16.223-16.635,42.71-14.934,56.88,3.47
		c17.861,23.198,9.541,58.042-16.476,68.322C335.144,324.873,330.45,325.407,325.964,326.47z"/>
</g>
</svg>
